<?xml version="1.0" encoding="UTF-8" standalone="no"?><!DOCTYPE svg PUBLIC "-//W3C//DTD SVG 1.1//EN" "http://www.w3.org/Graphics/SVG/1.1/DTD/svg11.dtd"><svg width="100%" height="100%" viewBox="0 0 3552 3552" version="1.1" xmlns="http://www.w3.org/2000/svg" xmlns:xlink="http://www.w3.org/1999/xlink" xml:space="preserve" xmlns:serif="http://www.serif.com/" style="fill-rule:evenodd;clip-rule:evenodd;stroke-linejoin:round;stroke-miterlimit:2;"><g id="color"><g><path d="M368.237,1213.84c-64.788,161.977 -102.407,337.712 -107.212,521.556l461.4,-464.143l250.377,229.441l100.898,92.46l699.608,-672.308l706.655,710.856l353.611,-355.713c-0,-0 277.96,279.613 456.692,459.407c-4.804,-183.844 -42.424,-359.579 -107.212,-521.556l-349.48,-351.559l-353.611,355.714c-195.729,-196.892 -600.892,-604.465 -600.892,-604.465l-101.088,-101.688l-709.025,681.358l-252.714,-231.582l-103.234,-94.601l-344.773,346.823Z" style="fill:#afa483;"/><path d="M3206.37,2275.2c37.572,-107.483 63.365,-220.476 75.829,-337.427l-448.628,-451.296l-353.611,355.714c-0,-0 -701.98,-706.154 -701.98,-706.154l-709.025,681.358c-0,0 -355.948,-326.183 -355.948,-326.183l-443.921,446.561c12.464,116.951 38.258,229.944 75.83,337.427l377.506,-379.751c0,-0 351.275,321.901 351.275,321.901l699.608,-672.309l706.655,710.857l353.611,-355.714c97.478,98.058 246.96,248.429 372.799,375.016Z" style="fill:#97b99e;"/><path d="M2989.87,2681.6c59.873,-80.084 112.014,-166.279 155.312,-257.472l-311.611,-313.464l-353.611,355.713c-0,0 -701.98,-706.153 -701.98,-706.153l-709.025,681.358c-0,-0 -355.948,-326.183 -355.948,-326.183l-306.904,308.729c43.298,91.193 95.439,177.388 155.312,257.472l161.007,-161.964c0,-0 351.275,321.9 351.275,321.9l699.608,-672.308l706.655,710.857l353.611,-355.714c-0,-0 66.968,67.367 156.299,157.229Z" style="fill:#5998a6;"/></g><g><path d="M1775.65,0c980.005,0 1775.64,795.64 1775.64,1775.65c0,980.005 -795.64,1775.64 -1775.64,1775.64c-980.006,0 -1775.65,-795.64 -1775.65,-1775.64c-0,-980.006 795.64,-1775.65 1775.65,-1775.65Zm-0,145.833c-899.518,0 -1629.81,730.295 -1629.81,1629.81c0,899.518 730.295,1629.81 1629.81,1629.81c899.518,0 1629.81,-730.294 1629.81,-1629.81c0,-899.518 -730.294,-1629.81 -1629.81,-1629.81Z" style="fill:url(#_Linear1);"/></g></g><defs><linearGradient id="_Linear1" x1="0" y1="0" x2="1" y2="0" gradientUnits="userSpaceOnUse" gradientTransform="matrix(-3.54035e-09,3551.29,-3551.29,-3.54035e-09,1775.65,0)"><stop offset="0" style="stop-color:#b1a482;stop-opacity:1"/><stop offset="0.5" style="stop-color:#97b99e;stop-opacity:1"/><stop offset="1" style="stop-color:#5998a6;stop-opacity:1"/></linearGradient></defs></svg>